Land_normalized_Motion_pl07
version=1
nRows=10
nColumns=43
inDegrees=yes
endheader
time		pelvis_tilt		pelvis_list		pelvis_rotation		pelvis_tx		pelvis_ty		pelvis_tz		hip_flexion_r		hip_adduction_r		hip_rotation_r		knee_angle_r		ankle_angle_r		subtalar_angle_r		mtp_angle_r		hip_flexion_l		hip_adduction_l		hip_rotation_l		knee_angle_l		ankle_angle_l		subtalar_angle_l		mtp_angle_l		lumbar_extension		lumbar_bending		lumbar_rotation		neck_flexion		neck_lateral_bending		neck_rotation		arm_flex_r		arm_add_r		arm_rot_r		elbow_flex_r		pro_sup_r		wrist_flex_r		wrist_dev_r		hand_finger_flex_r		arm_flex_l		arm_add_l		arm_rot_l		elbow_flex_l		pro_sup_l		wrist_flex_l		wrist_dev_l		hand_finger_flex_l		
1.037576		-5.218484		22.033906		94.300935		-0.015717		0.536614		0.404077		63.995912		-5.888727		1.597824		-127.600280		7.720076		-3.352830		29.831020		58.425096		1.669473		-4.235875		-121.663094		18.532334		-15.636645		23.144333		-68.850795		0.022369		-3.260575		-0.393243		1.250222		-1.260032		39.256955		-52.022914		10.236009		66.273354		91.948655		-34.212335		-0.521892		40.556786		27.860656		-47.394098		-3.543011		79.547619		-66.907737		-32.749561		-12.355177		-90.000210		
1.040227		-5.167616		22.264964		94.377219		-0.016008		0.530670		0.402546		64.494843		-5.954664		1.654564		-128.649472		7.771406		-2.950415		30.566362		59.048215		1.700310		-4.117806		-122.870724		18.234104		-15.670012		23.859851		-69.238693		0.218997		-3.405151		-0.269768		1.137884		-1.093246		43.136878		-51.541315		13.202282		65.307108		92.984755		-34.449579		-0.560904		39.581059		30.447688		-46.933600		-3.106863		79.545567		-68.842705		-35.130383		-13.370554		-90.000210		
1.042879		-5.241565		22.447034		94.465966		-0.016104		0.524758		0.401001		65.067693		-6.043968		1.775994		-129.706655		7.721350		-2.835260		30.841265		59.665432		1.751821		-4.115700		-124.002656		18.069297		-15.605907		24.154075		-69.557525		0.278392		-3.401121		-0.263980		1.052202		-1.163102		46.364957		-51.094022		15.256969		64.510156		93.598008		-33.971371		-0.404400		39.324228		33.342223		-46.470357		-1.755087		79.521225		-69.672772		-35.971643		-14.199579		-90.000210		
1.045530		-5.260301		22.636136		94.554388		-0.016292		0.519028		0.399589		65.578302		-6.132030		1.835849		-130.689693		7.749728		-2.727837		31.107380		60.285378		1.788813		-4.061255		-125.102436		17.744638		-15.458019		24.422707		-69.978074		0.381748		-3.411867		0.128945		1.074315		-1.194269		49.550320		-50.681149		17.396467		63.861803		94.322151		-33.751006		-0.314336		38.939721		35.999564		-46.133738		-0.611797		79.773090		-70.838013		-37.022226		-14.905932		-90.000210		
1.048182		-5.167721		22.957266		94.610205		-0.016516		0.513767		0.398225		65.846059		-6.175867		1.751156		-131.584810		7.847960		-2.638317		31.645810		60.700175		1.770357		-3.916453		-126.162882		17.573613		-15.430507		25.018684		-70.500039		0.616350		-3.557380		0.414881		0.892705		-1.008883		53.145940		-49.907115		20.092300		62.998772		94.995515		-34.015585		-0.233891		38.115655		38.315248		-45.692801		-0.277600		79.870106		-73.433670		-38.760336		-16.491418		-90.000210		
1.050833		-5.240456		23.086057		94.671501		-0.016517		0.508139		0.396734		66.402097		-6.225822		1.833717		-132.545255		7.891148		-2.696269		31.738404		61.289450		1.778653		-3.942389		-127.190129		17.511661		-15.320602		25.132968		-70.783405		0.643602		-3.525169		0.543835		0.869116		-1.105459		55.839645		-49.272448		21.557661		62.408923		95.462349		-33.489046		-0.108550		38.106200		41.014917		-45.174723		1.174724		79.888633		-73.676942		-38.783360		-17.057118		-90.000210		
1.053485		-5.229821		23.309725		94.692865		-0.016563		0.502895		0.395348		66.792087		-6.224814		1.836233		-133.433684		7.992380		-2.744912		31.856585		61.727681		1.723145		-3.928269		-128.163357		17.489563		-15.237447		25.268002		-71.177845		0.720159		-3.431076		0.676803		0.792264		-1.229466		58.566989		-48.628936		23.199709		61.798145		96.037349		-33.262010		0.010671		37.922751		43.597586		-44.610003		2.489474		79.916793		-74.071834		-38.718605		-17.479349		-90.000210		
1.056136		-5.176373		23.561807		94.682957		-0.016567		0.497855		0.394008		67.115246		-6.179387		1.776553		-134.274285		8.100566		-2.820318		31.990047		62.099804		1.629880		-3.884420		-129.107765		17.512459		-15.164733		25.423075		-71.607794		0.815779		-3.317582		0.809269		0.656276		-1.310461		61.276873		-47.940115		24.894370		61.198660		96.537898		-33.173986		0.127492		37.667745		46.044260		-44.042955		3.741114		79.972205		-74.438486		-38.398842		-17.848358		-90.000210		
1.058788		-5.093402		23.813932		94.646201		-0.016505		0.492944		0.392700		67.415208		-6.090133		1.695795		-135.082140		8.206222		-2.921463		32.131560		62.455938		1.494391		-3.826524		-130.028223		17.564840		-15.105270		25.585811		-72.042449		0.913690		-3.197893		0.971968		0.499364		-1.366067		63.904826		-47.195495		26.548932		60.640102		96.890797		-33.149231		0.217001		37.387515		48.364821		-43.484311		4.943710		80.059136		-74.636327		-37.731839		-18.161435		-90.000210		
1.061439		-4.996742		24.060464		94.585182		-0.016379		0.488118		0.391403		67.714312		-5.952480		1.609926		-135.871280		8.307956		-3.029640		32.279406		62.803083		1.326506		-3.771768		-130.936217		17.627131		-15.062447		25.747158		-72.469185		1.003597		-3.074470		1.134478		0.334811		-1.409409		66.445006		-46.421338		28.178293		60.122944		97.107245		-33.140265		0.262044		37.094518		50.601020		-42.954390		6.185721		80.164285		-74.596663		-36.738462		-18.404593		-90.000210		
